<svg id="Capa_1" data-name="Capa 1" xmlns="http://www.w3.org/2000/svg" viewBox="0 0 984 1080"><defs><style>.cls-1{fill:#fff;}</style></defs><title>Medina_Abella_Logo</title><path class="cls-1" d="M113.46,657.1l58.06-138.8h48.89V524h-5.88c-7.83,0-13,.69-15.39,2s-4.06,3.9-4.88,7.61S193,546.18,193,560.12v82.26q0,19.79.95,25.92t4.76,9.09q3.81,3,14.62,3h7.06v5.69H144.25v-5.69h5.65q10.09,0,14-2.72t5.05-8.48q1.13-5.74,1.12-26.78V535.62L107,686.05h-5.52L37.9,535.62v98.22q0,20.17,1.17,27.47a21.53,21.53,0,0,0,7.29,12.8q6.11,5.5,17.16,6.25v5.69h-57v-5.69q10.23-.61,16.63-5.88A21.31,21.31,0,0,0,31,661.55q1.42-7.66,1.42-28.45v-73q0-20-1.12-25.86c-.75-3.88-2.31-6.55-4.7-8S18.94,524,10.87,524H6.52V518.3H55.05Z"/><path class="cls-1" d="M362.37,633.84H368l-3.4,52.21h-132v-5.69h3.29q11.87,0,15.34-3.34a15.26,15.26,0,0,0,4.4-8.48q.95-5.13.94-26.16V560.12q0-19.17-1-25.24T251,526.41q-3.59-2.42-15.1-2.42V518.3H349.8l3.76,41.82H348q-3.77-17.57-9.23-24.93t-13-9.28Q318.31,524,301.61,524H279.52v70.4h16.92q11.64,0,16.28-2.11a10.74,10.74,0,0,0,6.11-6.37q1.47-4.26,1.47-16.64h5.52v57.4H320.3q0-14-2.24-18.74a11,11,0,0,0-6.51-6.19c-2.87-1-7.7-1.42-14.52-1.42H279.52V640q0,29.82,3.64,35.07t19.63,5.26h11.87q12.57,0,20.68-3.41t15.45-14Q358.14,652.39,362.37,633.84Z"/><path class="cls-1" d="M381.06,519.67l26.2-1.37q32.79-1.72,44.19-1.73,35.49,0,55.35,11.38t29.56,30.87q9.69,19.47,9.7,45a102.7,102.7,0,0,1-5.29,33.71q-5.29,15.27-14.52,25.35a62.1,62.1,0,0,1-21.38,15.34,83.26,83.26,0,0,1-23.1,6.56,279.34,279.34,0,0,1-30.79,1.3H380.35v-5.69h6.58q10.23,0,14.17-2.72t5-8.48q1.11-5.74,1.11-26.78V561.47q0-20-1.11-25.91t-4.7-8q-3.58-2.16-15.69-2.17h-4.7Zm49.12,3.46V635.2q0,24.88.88,32t5.29,10.08q4.41,2.91,18.63,2.9,20.81,0,34.2-6t22.38-23.62q9-17.64,9-45,0-21.27-5.23-38t-15-27.16q-9.76-10.46-21.62-14.23t-30.44-3.77Q439.34,522.51,430.18,523.13Z"/><path class="cls-1" d="M564.62,524V518.3h72.86V524h-3.4c-7.84,0-13,.69-15.4,2s-4,3.9-4.88,7.61-1.23,12.54-1.23,26.48v82.26q0,19.79.88,25.92t4.71,9.09q3.81,3,14.62,3h4.7v5.69H564.62v-5.69h4.71q10.21,0,14.16-2.72t5-8.48q1-5.74,1.06-26.78V560.12q0-20-1.06-25.86c-.7-3.88-2.27-6.55-4.7-8S576.1,524,568,524Z"/><path class="cls-1" d="M791.79,689.89,679.09,532.65V649.06q0,14.48,1.35,19.05t7.7,8.42q6.35,3.83,19,3.83v5.69H647.71v-5.69q11.4-.87,17.39-4.39t7.11-7.61q1.13-4.08,1.12-19.3V560.12q0-19.3-1.7-25.86t-5.41-8.41Q662.52,524,649.71,524V518.3h47l94.36,131.25V549.23q0-11.13-2.17-15.59t-8.87-7a44.57,44.57,0,0,0-16.1-2.6V518.3h57.82V524q-10.11.87-15.93,4.09t-7.4,7.73q-1.59,4.52-1.58,15.27V689.89Z"/><path class="cls-1" d="M921.3,624.2H860.78l-4.12,10.63Q847.49,658,847.49,665q0,7.54,4.89,11.44c3.24,2.6,7.42,3.9,12.51,3.9v5.69H817.53v-5.69q10.58-1.73,15.75-7.86t12.45-25.79q.59-1.86,5.64-14.35L897.68,516h4.58L955.5,649.18l7.28,17.57a23.26,23.26,0,0,0,6.65,9.34c2.77,2.27,7,3.69,12.51,4.27v5.69H919.3v-5.69q11.52,0,15.57-1.79t4.06-7.12q0-2.72-5.41-16.2Zm-2-5.57-28.2-71.51L863,618.63Z"/><path class="cls-1" d="M111.56,866.84H46.61l-4.42,11.42q-9.84,24.82-9.83,32.39,0,8.1,5.23,12.28T51,927.11v6.11H.19v-6.11q11.35-1.86,16.91-8.43T30.46,891q.64-2,6.06-15.4L86.21,750.68h4.92l57.13,143,7.82,18.85a24.91,24.91,0,0,0,7.12,10q4.49,3.66,13.43,4.58v6.11H109.42v-6.11q12.35,0,16.71-1.92c2.89-1.28,4.35-3.83,4.35-7.64q0-2.91-5.81-17.39Zm-2.14-6L79.15,784.13,49,860.87Z"/><path class="cls-1" d="M264.92,836.31q29.13,2.25,43.26,15.26t14.13,32.53q0,17-9.59,29.27a44.06,44.06,0,0,1-24.53,16.07q-15,3.78-40,3.78h-67.1v-6.11h6.56q11,0,15.2-2.92c2.81-1.94,4.6-5,5.35-9.09s1.15-13.69,1.15-28.74V798.74q0-21.91-1.21-28.28t-5-8.76q-3.84-2.4-16.84-2.39h-3.28V753.2l28.13-.8,32-1.06q70.13,0,70.12,42.48,0,17.53-12,28.15T264.92,836.31ZM234,833.78c2.1.09,3.87.14,5.3.14q27.24,0,37.2-9t10-29.21q0-14.07-3.91-21.77A27.24,27.24,0,0,0,270.85,762q-7.82-4.18-26.74-4.18c-3.27,0-6.64.13-10.09.39Zm0,6.51v40.09q0,25.62.88,32.53t4.73,10.48q3.85,3.58,15.2,3.59,20.19,0,30.27-10.89t10.09-32.66q0-22.29-11.41-32.85T243.6,840C240.58,840,237.38,840.11,234,840.29Z"/><path class="cls-1" d="M481.22,877.2h6l-3.66,56H342v-6.11h3.53q12.74,0,16.46-3.58a16.33,16.33,0,0,0,4.73-9.1q1-5.5,1-28.07V798.07q0-20.57-1.08-27.08c-.71-4.33-2.35-7.37-4.91-9.09s-8-2.59-16.21-2.59V753.2H467.72l4,44.87h-5.92q-4-18.84-9.9-26.75t-13.94-10q-8.07-2.05-26-2.05H392.3v75.54h18.16q12.48,0,17.47-2.26a11.54,11.54,0,0,0,6.56-6.84q1.58-4.57,1.58-17.85H442v61.6h-5.92q0-15-2.4-20.12a11.82,11.82,0,0,0-7-6.64q-4.6-1.51-15.58-1.52H392.3v42.61q0,32,3.91,37.64t21.07,5.64H430q13.5,0,22.2-3.65t16.58-15Q476.68,897.11,481.22,877.2Z"/><path class="cls-1" d="M649.08,880.25l-1.26,53H502.53v-6.11h5q11,0,15.2-2.92c2.82-1.94,4.63-5,5.42-9.09s1.21-13.69,1.21-28.74V798.07q0-21.51-1.21-27.74c-.79-4.16-2.48-7-5-8.63s-8.18-2.39-16.84-2.39h-3.78V753.2h82.1v6.11h-7.56q-12.62,0-16.52,2.19t-5.24,8.16q-1.32,6-1.32,28.41v94.26q0,19.51,1,24.43a11.34,11.34,0,0,0,5.49,7.63q4.49,2.73,19.24,2.72h13q15.76,0,23.4-2.92t14.5-12.74q6.87-9.83,12.55-31.2Z"/><path class="cls-1" d="M805.09,880.25l-1.26,53H658.54v-6.11h5q11,0,15.2-2.92c2.82-1.94,4.63-5,5.43-9.09s1.19-13.69,1.19-28.74V798.07q0-21.51-1.19-27.74t-5.05-8.63q-3.85-2.4-16.84-2.39h-3.78V753.2h82.1v6.11h-7.56q-12.62,0-16.53,2.19t-5.23,8.16q-1.32,6-1.32,28.41v94.26q0,19.51,1,24.43a11.29,11.29,0,0,0,5.48,7.63q4.47,2.73,19.23,2.72h13q15.76,0,23.39-2.92t14.5-12.74q6.89-9.83,12.55-31.2Z"/><path class="cls-1" d="M918.72,866.84H853.78l-4.42,11.42q-9.83,24.82-9.84,32.39,0,8.1,5.24,12.28t13.43,4.18v6.11H807.37v-6.11q11.34-1.86,16.89-8.43T837.63,891q.63-2,6.06-15.4l49.68-124.92h4.93l57.13,143,7.82,18.85a24.91,24.91,0,0,0,7.12,10q4.47,3.66,13.44,4.58v6.11H916.58v-6.11q12.36,0,16.71-1.92t4.35-7.64q0-2.91-5.8-17.39Zm-2.14-6-30.27-76.74-30.14,76.74Z"/><path class="cls-1" d="M116.27,1029.37h5v50.2h-5Z"/><path class="cls-1" d="M195,1029.37h4.88v50.2h-5.24l-31.1-42.52v42.52h-5v-50.2h5.25L195,1071.88Z"/><path class="cls-1" d="M237.28,1029.3h6.18l19.68,37.7,19.46-37.7h6.17v50.27h-4.59l-.08-43.38-19.67,38H261.7l-19.75-38v43.38h-4.67Z"/><path class="cls-1" d="M360.62,1032.35a25.94,25.94,0,0,1,9.52,9.23,24.29,24.29,0,0,1,3.52,12.78,24.67,24.67,0,0,1-3.52,12.86,26.47,26.47,0,0,1-45.39,0,24.58,24.58,0,0,1-3.52-12.86,24.2,24.2,0,0,1,3.52-12.78,25.84,25.84,0,0,1,9.51-9.23,27.18,27.18,0,0,1,26.36,0Zm-23.74,3.84a21.13,21.13,0,0,0-7.75,7.62,20.15,20.15,0,0,0-2.87,10.55,20.56,20.56,0,0,0,2.87,10.63,21.25,21.25,0,0,0,7.75,7.72,20.72,20.72,0,0,0,10.63,2.84,20.38,20.38,0,0,0,10.52-2.84,21.35,21.35,0,0,0,7.73-7.72,20.65,20.65,0,0,0,2.87-10.63,20.24,20.24,0,0,0-2.87-10.55,21.23,21.23,0,0,0-7.73-7.62,20.74,20.74,0,0,0-10.52-2.8A21.09,21.09,0,0,0,336.88,1036.19Z"/><path class="cls-1" d="M439,1032.64a11,11,0,0,1,4.27,9.23,11.31,11.31,0,0,1-2.48,7.46,11.68,11.68,0,0,1-6.92,4,13.52,13.52,0,0,1,8.61,4.09,12.17,12.17,0,0,1,3.09,8.55,11.8,11.8,0,0,1-4.81,10q-4.82,3.6-13.36,3.59H406.12V1029.3h21Q434.69,1029.3,439,1032.64Zm-3.77,16.52a8,8,0,0,0,2.95-6.65,7.74,7.74,0,0,0-2.95-6.46q-2.94-2.29-8.26-2.23H411.07v17.67h15.87Q432.27,1051.49,435.2,1049.16Zm1.76,23.41a8.29,8.29,0,0,0,3.56-7.15,8.12,8.12,0,0,0-3.59-7c-2.4-1.67-5.72-2.51-10-2.51H411.07v19.25h15.87Q433.41,1075.12,437,1072.57Z"/><path class="cls-1" d="M479.3,1029.37h4.95v50.2H479.3Z"/><path class="cls-1" d="M521.6,1029.37h4.95v45.75h22.12v4.45H521.6Z"/><path class="cls-1" d="M580,1029.37h5v50.2h-5Z"/><path class="cls-1" d="M659.77,1079.57l-6-13.36H625.94l-5.89,13.36h-5.31l22.62-50.2h5.17l22.62,50.2Zm-31.89-17.81h24l-12.07-27.14Z"/><path class="cls-1" d="M728.07,1079.57l-10.84-16.38c-1.54.1-2.71.15-3.53.15H699.91v16.23H695v-50.2H713.7q9.42,0,14.54,4.35t5.14,12.31a17.25,17.25,0,0,1-3,10.42,15.75,15.75,0,0,1-8.61,5.81l12.06,17.31Zm-14.37-20.68q7.18,0,11.06-3.27t3.88-9.44q0-6-3.88-9.2t-11.06-3.16H699.91v25.07Z"/><path class="cls-1" d="M768.43,1029.37h5v50.2h-5Z"/><path class="cls-1" d="M848.22,1079.57l-6-13.36H814.39l-5.89,13.36h-5.31l22.61-50.2H831l22.63,50.2Zm-31.9-17.81h24l-12.06-27.14Z"/><path class="cls-1" d="M399.81,259.75,327.38,24.55C323.32,10,316.48,0,295,0H195.69V6.36h26.79c13.63,0,26.8,8.17,31.81,31.19L361,392.14l62.6-170.08H415Z"/><path class="cls-1" d="M264.71,341c-6.4-17.09-31.09-108.16-38.82-131.8h-8.17V347s-2.16,26.16-27.82,32.86v5.94H293.21v-5.94C282,375,272.21,361,264.71,341Z"/><path class="cls-1" d="M476.89,0H582.13V10H551.48V272.23l-.88,16.14a112.81,112.81,0,0,1-53.27,89.78v1.71H577.7v5.94H444.88v-5.94l9.72-1.37c24.34-7.66,22.29-41.55,22.29-41.55Z"/><polygon class="cls-1" points="558.97 134.29 611.42 0 616.87 0 765.36 379.86 793.97 379.86 793.97 385.8 648.2 385.8 648.2 379.86 689.75 379.86 580.9 100.82 567.52 134.29 558.97 134.29"/></svg>