<svg id="Capa_1" data-name="Capa 1" xmlns="http://www.w3.org/2000/svg" viewBox="0 0 984 128"><defs><style>.cls-1{fill:#cca556;}</style></defs><title>Medina_Abella_Logo</title><path class="cls-1" d="M264.65,55.87l22.59-54h19V4.09H304q-4.56,0-6,.79a4.19,4.19,0,0,0-1.89,3c-.33,1.44-.48,4.88-.48,10.3v32A86.31,86.31,0,0,0,296,60.23a5.3,5.3,0,0,0,1.85,3.54q1.49,1.16,5.7,1.15h2.74v2.22H276.63V64.92h2.19q3.94,0,5.47-1.06a5,5,0,0,0,2-3.29,75.44,75.44,0,0,0,.43-10.42V8.61L262.14,67.14H260L235.25,8.61V46.83a79.53,79.53,0,0,0,.46,10.68,8.38,8.38,0,0,0,2.83,5,10.74,10.74,0,0,0,6.68,2.43v2.22H223V64.92a11,11,0,0,0,6.47-2.28,8.3,8.3,0,0,0,3-5,72.22,72.22,0,0,0,.55-11.07V18.14a70,70,0,0,0-.43-10.06A4.44,4.44,0,0,0,230.84,5c-.93-.57-3-.86-6.1-.86H223V1.87h18.89Z"/><path class="cls-1" d="M361.49,46.83h2.2l-1.33,20.31H311V64.92h1.28q4.62,0,6-1.3A5.93,5.93,0,0,0,320,60.33a81.72,81.72,0,0,0,.36-10.18v-32A76.31,76.31,0,0,0,320,8.32,4.63,4.63,0,0,0,318.17,5q-1.4-.94-5.88-.94V1.87H356.6l1.46,16.27h-2.15q-1.46-6.83-3.59-9.7a9,9,0,0,0-5.05-3.61,42.72,42.72,0,0,0-9.42-.74h-8.6V31.47h6.59q4.53,0,6.33-.82a4.15,4.15,0,0,0,2.38-2.48,23.64,23.64,0,0,0,.57-6.47h2.15V44h-2.15q0-5.43-.87-7.29a4.28,4.28,0,0,0-2.53-2.4,20,20,0,0,0-5.65-.56h-6.82V49.23c0,7.74.48,12.28,1.42,13.65s3.49,2,7.64,2h4.62a21,21,0,0,0,8-1.32,14.63,14.63,0,0,0,6-5.44A32.82,32.82,0,0,0,361.49,46.83Z"/><path class="cls-1" d="M368.76,2.4,379,1.87q12.75-.68,17.19-.67,13.82,0,21.54,4.43a28.06,28.06,0,0,1,11.5,12A38.81,38.81,0,0,1,433,35.13a40,40,0,0,1-2.06,13.12,27.75,27.75,0,0,1-5.65,9.86,24.1,24.1,0,0,1-8.32,6,32.25,32.25,0,0,1-9,2.55,107.27,107.27,0,0,1-12,.51H368.49V64.92h2.56q4,0,5.51-1.06a4.92,4.92,0,0,0,2-3.29A73.18,73.18,0,0,0,379,50.15V18.67a69.88,69.88,0,0,0-.44-10.08,4.33,4.33,0,0,0-1.83-3.13q-1.4-.86-6.1-.85h-1.83Zm19.11,1.35v43.6q0,9.69.35,12.47a5.09,5.09,0,0,0,2.06,3.92q1.71,1.14,7.24,1.14,8.1,0,13.31-2.34t8.71-9.19Q423,46.48,423,35.85a49.25,49.25,0,0,0-2-14.77,27.15,27.15,0,0,0-5.83-10.57A19.63,19.63,0,0,0,406.76,5a39.87,39.87,0,0,0-11.85-1.47Q391.45,3.51,387.87,3.75Z"/><path class="cls-1" d="M440.18,4.09V1.87h28.35V4.09H467.2q-4.56,0-6,.79a4.22,4.22,0,0,0-1.89,3,64.47,64.47,0,0,0-.48,10.3v32a90.48,90.48,0,0,0,.34,10.08A5.21,5.21,0,0,0,461,63.77q1.49,1.16,5.69,1.15h1.83v2.22H440.18V64.92H442q4,0,5.51-1.06a4.82,4.82,0,0,0,1.94-3.29,76.08,76.08,0,0,0,.42-10.42v-32a72.18,72.18,0,0,0-.42-10.06A4.31,4.31,0,0,0,447.63,5q-1.41-.86-6.12-.86Z"/><path class="cls-1" d="M528.57,68.63,484.72,7.46V52.75a32.65,32.65,0,0,0,.52,7.41,6.12,6.12,0,0,0,3,3.27q2.46,1.49,7.41,1.49v2.22H472.51V64.92a15.85,15.85,0,0,0,6.77-1.71,5.43,5.43,0,0,0,2.76-3,37.82,37.82,0,0,0,.44-7.5V18.14q0-7.51-.67-10.06t-2.1-3.27q-1.44-.72-6.42-.72V1.87h18.29l36.71,51.07v-39c0-2.89-.28-4.92-.85-6.07A6,6,0,0,0,524,5.1a17.19,17.19,0,0,0-6.26-1V1.87h22.49V4.09A15.52,15.52,0,0,0,534,5.68a5.75,5.75,0,0,0-2.88,3,20,20,0,0,0-.62,6v54Z"/><path class="cls-1" d="M579,43.07H555.4l-1.59,4.14q-3.57,9-3.57,11.75a5.35,5.35,0,0,0,1.9,4.45A7.54,7.54,0,0,0,557,64.92v2.22H538.58V64.92a9.73,9.73,0,0,0,6.12-3.05q2-2.38,4.85-10c.15-.48.89-2.34,2.2-5.58L569.76,1h1.79l20.71,51.83,2.83,6.84a9,9,0,0,0,2.58,3.63,9.17,9.17,0,0,0,4.88,1.66v2.22H578.18V64.92q4.47,0,6.05-.7a2.71,2.71,0,0,0,1.58-2.76q0-1.07-2.1-6.31Zm-.77-2.16-11-27.82L556.27,40.91Z"/><path class="cls-1" d="M665.78,43.07H642.23l-1.6,4.14q-3.57,9-3.56,11.75A5.37,5.37,0,0,0,639,63.41a7.57,7.57,0,0,0,4.87,1.51v2.22H625.4V64.92a9.73,9.73,0,0,0,6.13-3.05q2-2.38,4.85-10,.23-.72,2.2-5.58L656.59,1h1.78l20.71,51.83,2.84,6.84a9,9,0,0,0,2.58,3.63,9.13,9.13,0,0,0,4.87,1.66v2.22H665V64.92q4.49,0,6.06-.7a2.71,2.71,0,0,0,1.58-2.76q0-1.07-2.11-6.31ZM665,40.91,654,13.09,643.1,40.91Z"/><path class="cls-1" d="M721.38,32q10.56.82,15.68,5.53a15.4,15.4,0,0,1,5.12,11.8,16.76,16.76,0,0,1-3.47,10.61,15.94,15.94,0,0,1-8.89,5.82,61.16,61.16,0,0,1-14.52,1.38H691V64.92h2.38q4,0,5.51-1.06a4.82,4.82,0,0,0,1.94-3.29,76.73,76.73,0,0,0,.41-10.42V18.38a72.74,72.74,0,0,0-.43-10.25A4.49,4.49,0,0,0,699,5c-.93-.57-3-.86-6.1-.86h-1.19V1.87l10.19-.29,11.62-.38q25.41,0,25.42,15.4a13,13,0,0,1-4.37,10.21Q730.16,30.65,721.38,32Zm-11.2-.91c.76,0,1.4,0,1.92,0,6.58,0,11.07-1.08,13.48-3.27s3.62-5.71,3.62-10.59a17.83,17.83,0,0,0-1.42-7.89,9.94,9.94,0,0,0-4.25-4.31q-2.84-1.52-9.7-1.51c-1.19,0-2.41,0-3.65.14Zm0,2.36V48q0,9.3.32,11.79a6,6,0,0,0,1.71,3.8q1.39,1.3,5.51,1.31,7.32,0,11-3.95t3.66-11.84c0-5.39-1.38-9.37-4.14-11.91s-7.61-3.83-14.56-3.83C712.55,33.35,711.39,33.38,710.18,33.45Z"/><path class="cls-1" d="M799.79,46.83H802l-1.33,20.31H749.31V64.92h1.28q4.62,0,6-1.3a5.93,5.93,0,0,0,1.72-3.29,81.72,81.72,0,0,0,.36-10.18v-32a76.31,76.31,0,0,0-.39-9.82A4.63,4.63,0,0,0,756.47,5q-1.4-.94-5.88-.94V1.87H794.9l1.46,16.27h-2.15q-1.46-6.83-3.58-9.7a9.1,9.1,0,0,0-5.06-3.61,42.68,42.68,0,0,0-9.41-.74h-8.6V31.47h6.58q4.53,0,6.33-.82a4.15,4.15,0,0,0,2.38-2.48,23.52,23.52,0,0,0,.58-6.47h2.14V44h-2.14c0-3.62-.3-6.05-.87-7.29a4.32,4.32,0,0,0-2.54-2.4,20,20,0,0,0-5.65-.56h-6.81V49.23c0,7.74.47,12.28,1.41,13.65s3.5,2,7.64,2h4.62a21,21,0,0,0,8-1.32,14.57,14.57,0,0,0,6-5.44A32.82,32.82,0,0,0,799.79,46.83Z"/><path class="cls-1" d="M860.65,47.93l-.46,19.21H807.52V64.92h1.83q4,0,5.51-1.06a5,5,0,0,0,2-3.29,73.78,73.78,0,0,0,.43-10.42v-32a70,70,0,0,0-.43-10.06A4.47,4.47,0,0,0,815,5q-1.39-.86-6.11-.86h-1.37V1.87h29.77V4.09h-2.74q-4.57,0-6,.79a4.2,4.2,0,0,0-1.9,3,64.47,64.47,0,0,0-.48,10.3V52.31a62.44,62.44,0,0,0,.36,8.86,4.13,4.13,0,0,0,2,2.77c1.08.65,3.41,1,7,1h4.71a25.16,25.16,0,0,0,8.48-1.06A11.91,11.91,0,0,0,854,59.24q2.5-3.56,4.55-11.31Z"/><path class="cls-1" d="M917.21,47.93l-.46,19.21H864.08V64.92h1.83q4,0,5.51-1.06a5,5,0,0,0,2-3.29,75.44,75.44,0,0,0,.43-10.42v-32a71.59,71.59,0,0,0-.43-10.06A4.45,4.45,0,0,0,871.55,5c-.92-.57-3-.86-6.1-.86h-1.37V1.87h29.77V4.09H891.1q-4.56,0-6,.79a4.19,4.19,0,0,0-1.89,3c-.33,1.44-.49,4.88-.49,10.3V52.31a61.81,61.81,0,0,0,.37,8.86,4.13,4.13,0,0,0,2,2.77c1.08.65,3.41,1,7,1h4.71a25.16,25.16,0,0,0,8.48-1.06,11.91,11.91,0,0,0,5.26-4.62q2.49-3.56,4.55-11.31Z"/><path class="cls-1" d="M958.41,43.07H934.86l-1.6,4.14q-3.57,9-3.57,11.75a5.38,5.38,0,0,0,1.9,4.45,7.55,7.55,0,0,0,4.87,1.51v2.22H918V64.92a9.73,9.73,0,0,0,6.13-3.05q2-2.38,4.84-10,.24-.72,2.2-5.58L949.22,1H951l20.71,51.83,2.83,6.84A7.84,7.84,0,0,0,982,64.92v2.22H957.63V64.92q4.49,0,6.06-.7a2.71,2.71,0,0,0,1.57-2.76q0-1.07-2.1-6.31Zm-.78-2.16-11-27.82L935.73,40.91Z"/><path class="cls-1" d="M229.49,95.42h3.91v28.47h-3.91Z"/><path class="cls-1" d="M269.92,95.42h3.87v28.47h-4l-16.27-22v22h-3.9V95.42h3.94l16.31,22.08Z"/><path class="cls-1" d="M290.1,95.42h4.64l10.41,20,10.33-20h4.68v28.47H316.5l0-22.74-10.13,19.73h-2.4l-10.21-19.73v22.74H290.1Z"/><path class="cls-1" d="M356.42,97.09a14.33,14.33,0,0,1,5.43,5.22,13.9,13.9,0,0,1,2,7.3,14.13,14.13,0,0,1-2,7.35,14.41,14.41,0,0,1-5.43,5.28,15.71,15.71,0,0,1-15.09,0A14.41,14.41,0,0,1,335.9,117a14.14,14.14,0,0,1-2-7.35,13.91,13.91,0,0,1,2-7.3,14.35,14.35,0,0,1,5.41-5.22,15.82,15.82,0,0,1,15.11,0Zm-13,3a11,11,0,0,0-4,4,10.84,10.84,0,0,0,0,11,11.17,11.17,0,0,0,4,4,10.76,10.76,0,0,0,5.52,1.49,10.55,10.55,0,0,0,5.47-1.49,11.17,11.17,0,0,0,4-4,11,11,0,0,0,0-11,11,11,0,0,0-4-4,10.63,10.63,0,0,0-5.47-1.47A10.84,10.84,0,0,0,343.4,100.14Z"/><path class="cls-1" d="M396.61,97.31a6.18,6.18,0,0,1,2.5,5.23,6.29,6.29,0,0,1-1.38,4.12,6.75,6.75,0,0,1-3.79,2.26,7.4,7.4,0,0,1,4.66,2.38,7.1,7.1,0,0,1,1.69,4.82,6.75,6.75,0,0,1-2.75,5.72,12.48,12.48,0,0,1-7.58,2H377.59V95.42h12.16A11.15,11.15,0,0,1,396.61,97.31Zm-3,9.07a3.81,3.81,0,0,0,1.44-3.2,3.71,3.71,0,0,0-1.44-3.13,6.47,6.47,0,0,0-4.09-1H381.5v8.5h8.05A6.53,6.53,0,0,0,393.64,106.38Zm.87,12.73a4,4,0,0,0,1.79-3.48,3.85,3.85,0,0,0-1.79-3.37,8.66,8.66,0,0,0-5-1.22H381.5v9.27h8.05A8.37,8.37,0,0,0,394.51,119.11Z"/><path class="cls-1" d="M414.69,95.42h3.9v28.47h-3.9Z"/><path class="cls-1" d="M434.86,95.42h3.91v24.93h12.44v3.54H434.86Z"/><path class="cls-1" d="M464.31,95.42h3.9v28.47h-3.9Z"/><path class="cls-1" d="M505.63,123.89l-3-6.92h-15l-3,6.92h-4.1l12.65-28.47h4.06l12.61,28.47Zm-16.47-10.45h12l-6-13.83Z"/><path class="cls-1" d="M540.54,123.89l-5.66-9c-.65.06-1.18.08-1.59.08h-7.24v8.87h-3.9V95.42h11.14q5.41,0,8.36,2.5a8.78,8.78,0,0,1,3,7.1,10,10,0,0,1-1.61,5.81,9,9,0,0,1-4.61,3.42l6.63,9.64Zm-7.25-12.41a8.67,8.67,0,0,0,5.62-1.6,5.8,5.8,0,0,0,2-4.74,5.58,5.58,0,0,0-2-4.62A8.85,8.85,0,0,0,533.29,99h-7.24v12.53Z"/><path class="cls-1" d="M559.69,95.42h3.91v28.47h-3.91Z"/><path class="cls-1" d="M601,123.89,598,117H583l-3,6.92h-4.11l12.65-28.47h4.07l12.61,28.47Zm-16.47-10.45h12l-6-13.83Z"/><path class="cls-1" d="M69.49,84.47,46.2,8.85C44.9,4.18,42.7,1,35.8,1H3.86V3h8.62c4.38,0,8.61,2.63,10.22,10L57,127,77.13,72.35H74.38Z"/><path class="cls-1" d="M26.05,110.61c-2.06-5.5-10-34.78-12.48-42.38H10.94v44.3s-.69,8.41-8.94,10.56V125H35.22v-1.91C31.6,121.52,28.46,117,26.05,110.61Z"/><path class="cls-1" d="M94.27,1h33.84V4.17h-9.85V88.49L118,93.67a36.24,36.24,0,0,1-17.13,28.87v.55h25.85V125H84v-1.91l3.13-.44c7.82-2.46,7.16-13.36,7.16-13.36Z"/><polygon class="cls-1" points="120.67 44.14 137.53 0.96 139.28 0.96 187.02 123.09 196.22 123.09 196.22 125 149.35 125 149.35 123.09 162.71 123.09 127.71 33.38 123.41 44.14 120.67 44.14"/></svg>